<svg data-v-423bf9ae="" xmlns="http://www.w3.org/2000/svg" class="iconLeft" viewBox="0.85 0.72 731.8 90.05"><!----><!----><!----><g data-v-423bf9ae="" id="9535b323-020b-4bb7-b22a-1accb7966836" fill="white" transform="matrix(4.7430830001831055,0,0,4.7430830001831055,98.80367279052734,1.0082687139511108)"><path d="M1.35 12.61L1.35 2.95L2.74 2.95L2.74 7.16L7.31 7.16L7.31 2.95L8.71 2.95L8.71 12.61L7.31 12.61L7.31 8.39L2.74 8.39L2.74 12.61L1.35 12.61ZM11.61 15.54L12.82 12.50L10.17 5.78L11.63 5.78L13.50 10.96L15.35 5.78L16.80 5.78L13.03 15.54L11.61 15.54ZM18.01 15.60L18.01 5.78L19.34 5.78L19.34 6.59L19.34 6.59Q19.68 6.13 20.20 5.88L20.20 5.88L20.20 5.88Q20.73 5.63 21.35 5.63L21.35 5.63L21.35 5.63Q22.25 5.63 22.90 6.11L22.90 6.11L22.90 6.11Q23.54 6.58 23.88 7.39L23.88 7.39L23.88 7.39Q24.21 8.20 24.21 9.19L24.21 9.19L24.21 9.19Q24.21 10.17 23.88 10.98L23.88 10.98L23.88 10.98Q23.55 11.79 22.90 12.26L22.90 12.26L22.90 12.26Q22.26 12.74 21.36 12.74L21.36 12.74L21.36 12.74Q20.75 12.74 20.22 12.50L20.22 12.50L20.22 12.50Q19.69 12.26 19.34 11.79L19.34 11.79L19.34 15.60L18.01 15.60ZM21.04 11.56L21.04 11.56Q21.65 11.56 22.06 11.24L22.06 11.24L22.06 11.24Q22.48 10.92 22.67 10.39L22.67 10.39L22.67 10.39Q22.87 9.85 22.87 9.19L22.87 9.19L22.87 9.19Q22.87 8.52 22.67 7.98L22.67 7.98L22.67 7.98Q22.48 7.44 22.06 7.12L22.06 7.12L22.06 7.12Q21.65 6.79 21.04 6.79L21.04 6.79L21.04 6.79Q20.43 6.79 20.02 7.12L20.02 7.12L20.02 7.12Q19.61 7.44 19.41 7.98L19.41 7.98L19.41 7.98Q19.22 8.52 19.22 9.19L19.22 9.19L19.22 9.19Q19.22 9.85 19.41 10.39L19.41 10.39L19.41 10.39Q19.61 10.92 20.02 11.24L20.02 11.24L20.02 11.24Q20.43 11.56 21.04 11.56L21.04 11.56ZM28.53 12.72L28.53 12.72Q27.47 12.72 26.74 12.24L26.74 12.24L26.74 12.24Q26.00 11.76 25.64 10.97L25.64 10.97L25.64 10.97Q25.27 10.18 25.27 9.22L25.27 9.22L25.27 9.22Q25.27 8.29 25.62 7.47L25.62 7.47L25.62 7.47Q25.98 6.66 26.69 6.16L26.69 6.16L26.69 6.16Q27.40 5.66 28.42 5.66L28.42 5.66L28.42 5.66Q29.50 5.66 30.17 6.16L30.17 6.16L30.17 6.16Q30.85 6.65 31.14 7.42L31.14 7.42L31.14 7.42Q31.44 8.19 31.44 9.04L31.44 9.04L31.44 9.04Q31.44 9.41 31.40 9.63L31.40 9.63L26.67 9.63L26.67 9.63Q26.72 10.48 27.19 11.01L27.19 11.01L27.19 11.01Q27.66 11.54 28.53 11.54L28.53 11.54L28.53 11.54Q29.09 11.54 29.52 11.37L29.52 11.37L29.52 11.37Q29.96 11.20 30.32 10.81L30.32 10.81L31.23 11.58L31.23 11.58Q30.67 12.17 30.02 12.44L30.02 12.44L30.02 12.44Q29.37 12.72 28.53 12.72L28.53 12.72ZM26.67 8.62L30.15 8.62L30.15 8.62Q30.11 7.79 29.67 7.27L29.67 7.27L29.67 7.27Q29.24 6.76 28.41 6.76L28.41 6.76L28.41 6.76Q27.62 6.76 27.18 7.28L27.18 7.28L27.18 7.28Q26.75 7.80 26.67 8.62L26.67 8.62ZM33.03 12.61L33.03 5.78L34.33 5.78L34.33 6.96L34.33 6.96Q34.57 6.34 35.10 5.99L35.10 5.99L35.10 5.99Q35.64 5.63 36.26 5.63L36.26 5.63L36.26 5.63Q36.60 5.63 36.90 5.74L36.90 5.74L36.90 5.74Q37.21 5.85 37.43 6.05L37.43 6.05L36.85 7.16L36.85 7.16Q36.51 6.91 36.05 6.91L36.05 6.91L36.05 6.91Q35.55 6.91 35.16 7.20L35.16 7.20L35.16 7.20Q34.77 7.49 34.54 8.05L34.54 8.05L34.54 8.05Q34.32 8.62 34.32 9.44L34.32 9.44L34.32 12.61L33.03 12.61ZM40.50 12.74L40.50 12.74Q39.85 12.74 39.29 12.50L39.29 12.50L39.29 12.50Q38.73 12.26 38.35 11.85L38.35 11.85L38.35 11.85Q37.97 11.44 37.80 10.94L37.80 10.94L38.88 10.44L38.88 10.44Q39.07 10.97 39.45 11.31L39.45 11.31L39.45 11.31Q39.83 11.65 40.47 11.65L40.47 11.65L40.47 11.65Q41.04 11.65 41.37 11.38L41.37 11.38L41.37 11.38Q41.70 11.10 41.70 10.67L41.70 10.67L41.70 10.67Q41.70 10.36 41.51 10.15L41.51 10.15L41.51 10.15Q41.32 9.95 41.03 9.83L41.03 9.83L41.03 9.83Q40.74 9.71 40.22 9.56L40.22 9.56L40.22 9.56Q39.57 9.37 39.16 9.18L39.16 9.18L39.16 9.18Q38.75 8.99 38.46 8.62L38.46 8.62L38.46 8.62Q38.17 8.24 38.17 7.64L38.17 7.64L38.17 7.64Q38.17 7 38.48 6.55L38.48 6.55L38.48 6.55Q38.80 6.09 39.33 5.86L39.33 5.86L39.33 5.86Q39.87 5.63 40.50 5.63L40.50 5.63L40.50 5.63Q41.32 5.63 41.94 6.01L41.94 6.01L41.94 6.01Q42.55 6.38 42.91 7.05L42.91 7.05L41.90 7.61L41.90 7.61Q41.43 6.69 40.46 6.69L40.46 6.69L40.46 6.69Q39.98 6.69 39.70 6.90L39.70 6.90L39.70 6.90Q39.41 7.12 39.41 7.46L39.41 7.46L39.41 7.46Q39.41 7.72 39.59 7.90L39.59 7.90L39.59 7.90Q39.76 8.08 40.03 8.19L40.03 8.19L40.03 8.19Q40.30 8.29 40.78 8.44L40.78 8.44L40.78 8.44Q41.48 8.65 41.92 8.86L41.92 8.86L41.92 8.86Q42.36 9.06 42.67 9.48L42.67 9.48L42.67 9.48Q42.99 9.89 42.99 10.56L42.99 10.56L42.99 10.56Q42.99 11.27 42.64 11.76L42.64 11.76L42.64 11.76Q42.29 12.26 41.72 12.50L41.72 12.50L41.72 12.50Q41.15 12.74 40.50 12.74L40.50 12.74ZM44.62 15.60L44.62 5.78L45.95 5.78L45.95 6.59L45.95 6.59Q46.29 6.13 46.82 5.88L46.82 5.88L46.82 5.88Q47.34 5.63 47.96 5.63L47.96 5.63L47.96 5.63Q48.86 5.63 49.51 6.11L49.51 6.11L49.51 6.11Q50.16 6.58 50.49 7.39L50.49 7.39L50.49 7.39Q50.83 8.20 50.83 9.19L50.83 9.19L50.83 9.19Q50.83 10.17 50.49 10.98L50.49 10.98L50.49 10.98Q50.16 11.79 49.52 12.26L49.52 12.26L49.52 12.26Q48.87 12.74 47.97 12.74L47.97 12.74L47.97 12.74Q47.36 12.74 46.83 12.50L46.83 12.50L46.83 12.50Q46.30 12.26 45.95 11.79L45.95 11.79L45.95 15.60L44.62 15.60ZM47.65 11.56L47.65 11.56Q48.26 11.56 48.68 11.24L48.68 11.24L48.68 11.24Q49.09 10.92 49.29 10.39L49.29 10.39L49.29 10.39Q49.49 9.85 49.49 9.19L49.49 9.19L49.49 9.19Q49.49 8.52 49.29 7.98L49.29 7.98L49.29 7.98Q49.09 7.44 48.68 7.12L48.68 7.12L48.68 7.12Q48.26 6.79 47.65 6.79L47.65 6.79L47.65 6.79Q47.04 6.79 46.63 7.12L46.63 7.12L46.63 7.12Q46.22 7.44 46.03 7.98L46.03 7.98L46.03 7.98Q45.83 8.52 45.83 9.19L45.83 9.19L45.83 9.19Q45.83 9.85 46.03 10.39L46.03 10.39L46.03 10.39Q46.22 10.92 46.63 11.24L46.63 11.24L46.63 11.24Q47.04 11.56 47.65 11.56L47.65 11.56ZM54.17 12.74L54.17 12.74Q53.50 12.74 52.97 12.49L52.97 12.49L52.97 12.49Q52.44 12.24 52.14 11.75L52.14 11.75L52.14 11.75Q51.84 11.27 51.84 10.61L51.84 10.61L51.84 10.61Q51.84 9.58 52.59 9.10L52.59 9.10L52.59 9.10Q53.33 8.62 54.71 8.62L54.71 8.62L56.37 8.62L56.37 8.62Q56.37 7.77 55.99 7.28L55.99 7.28L55.99 7.28Q55.62 6.79 54.84 6.79L54.84 6.79L54.84 6.79Q54.24 6.79 53.81 7.07L53.81 7.07L53.81 7.07Q53.37 7.36 53.09 7.79L53.09 7.79L52.10 7.05L52.10 7.05Q52.59 6.36 53.26 6.00L53.26 6.00L53.26 6.00Q53.92 5.63 54.81 5.63L54.81 5.63L54.81 5.63Q55.69 5.63 56.32 5.98L56.32 5.98L56.32 5.98Q56.96 6.34 57.29 6.97L57.29 6.97L57.29 6.97Q57.61 7.60 57.61 8.44L57.61 8.44L57.61 12.61L56.51 12.61L56.44 11.45L56.44 11.45Q56.06 12.13 55.48 12.43L55.48 12.43L55.48 12.43Q54.89 12.74 54.17 12.74L54.17 12.74ZM54.35 11.62L54.35 11.62Q54.92 11.62 55.38 11.33L55.38 11.33L55.38 11.33Q55.84 11.03 56.10 10.56L56.10 10.56L56.10 10.56Q56.36 10.10 56.37 9.60L56.37 9.60L54.80 9.60L54.80 9.60Q54.00 9.60 53.60 9.86L53.60 9.86L53.60 9.86Q53.20 10.13 53.20 10.65L53.20 10.65L53.20 10.65Q53.20 11.12 53.51 11.37L53.51 11.37L53.51 11.37Q53.82 11.62 54.35 11.62L54.35 11.62ZM62.15 12.74L62.15 12.74Q61.14 12.74 60.44 12.25L60.44 12.25L60.44 12.25Q59.73 11.76 59.38 10.95L59.38 10.95L59.38 10.95Q59.02 10.14 59.02 9.20L59.02 9.20L59.02 9.20Q59.02 8.26 59.37 7.45L59.37 7.45L59.37 7.45Q59.73 6.63 60.43 6.13L60.43 6.13L60.43 6.13Q61.13 5.63 62.13 5.63L62.13 5.63L62.13 5.63Q63.10 5.63 63.83 6.13L63.83 6.13L63.83 6.13Q64.55 6.62 64.93 7.54L64.93 7.54L63.68 8.05L63.68 8.05Q63.53 7.49 63.11 7.14L63.11 7.14L63.11 7.14Q62.70 6.80 62.13 6.80L62.13 6.80L62.13 6.80Q61.52 6.80 61.13 7.15L61.13 7.15L61.13 7.15Q60.73 7.50 60.55 8.04L60.55 8.04L60.55 8.04Q60.37 8.59 60.37 9.20L60.37 9.20L60.37 9.20Q60.37 9.82 60.55 10.36L60.55 10.36L60.55 10.36Q60.72 10.90 61.12 11.24L61.12 11.24L61.12 11.24Q61.52 11.58 62.13 11.58L62.13 11.58L62.13 11.58Q62.69 11.58 63.11 11.25L63.11 11.25L63.11 11.25Q63.53 10.91 63.68 10.36L63.68 10.36L64.85 10.83L64.85 10.83Q64.53 11.73 63.82 12.24L63.82 12.24L63.82 12.24Q63.11 12.74 62.15 12.74L62.15 12.74ZM69.02 12.72L69.02 12.72Q67.96 12.72 67.23 12.24L67.23 12.24L67.23 12.24Q66.49 11.76 66.13 10.97L66.13 10.97L66.13 10.97Q65.76 10.18 65.76 9.22L65.76 9.22L65.76 9.22Q65.76 8.29 66.11 7.47L66.11 7.47L66.11 7.47Q66.47 6.66 67.18 6.16L67.18 6.16L67.18 6.16Q67.89 5.66 68.91 5.66L68.91 5.66L68.91 5.66Q69.99 5.66 70.66 6.16L70.66 6.16L70.66 6.16Q71.34 6.65 71.63 7.42L71.63 7.42L71.63 7.42Q71.93 8.19 71.93 9.04L71.93 9.04L71.93 9.04Q71.93 9.41 71.89 9.63L71.89 9.63L67.16 9.63L67.16 9.63Q67.21 10.48 67.68 11.01L67.68 11.01L67.68 11.01Q68.15 11.54 69.02 11.54L69.02 11.54L69.02 11.54Q69.58 11.54 70.01 11.37L70.01 11.37L70.01 11.37Q70.44 11.20 70.81 10.81L70.81 10.81L71.72 11.58L71.72 11.58Q71.16 12.17 70.51 12.44L70.51 12.44L70.51 12.44Q69.86 12.72 69.02 12.72L69.02 12.72ZM67.16 8.62L70.64 8.62L70.64 8.62Q70.59 7.79 70.16 7.27L70.16 7.27L70.16 7.27Q69.73 6.76 68.90 6.76L68.90 6.76L68.90 6.76Q68.11 6.76 67.67 7.28L67.67 7.28L67.67 7.28Q67.24 7.80 67.16 8.62L67.16 8.62ZM77.33 12.61L77.33 2.95L78.72 2.95L78.72 7.16L83.30 7.16L83.30 2.95L84.69 2.95L84.69 12.61L83.30 12.61L83.30 8.39L78.72 8.39L78.72 12.61L77.33 12.61ZM88.84 12.74L88.84 12.74Q88.16 12.74 87.63 12.49L87.63 12.49L87.63 12.49Q87.10 12.24 86.80 11.75L86.80 11.75L86.80 11.75Q86.50 11.27 86.50 10.61L86.50 10.61L86.50 10.61Q86.50 9.58 87.25 9.10L87.25 9.10L87.25 9.10Q88.00 8.62 89.37 8.62L89.37 8.62L91.03 8.62L91.03 8.62Q91.03 7.77 90.66 7.28L90.66 7.28L90.66 7.28Q90.28 6.79 89.51 6.79L89.51 6.79L89.51 6.79Q88.91 6.79 88.47 7.07L88.47 7.07L88.47 7.07Q88.03 7.36 87.75 7.79L87.75 7.79L86.76 7.05L86.76 7.05Q87.25 6.36 87.92 6.00L87.92 6.00L87.92 6.00Q88.59 5.63 89.48 5.63L89.48 5.63L89.48 5.63Q90.36 5.63 90.99 5.98L90.99 5.98L90.99 5.98Q91.62 6.34 91.95 6.97L91.95 6.97L91.95 6.97Q92.28 7.60 92.28 8.44L92.28 8.44L92.28 12.61L91.18 12.61L91.11 11.45L91.11 11.45Q90.73 12.13 90.14 12.43L90.14 12.43L90.14 12.43Q89.56 12.74 88.84 12.74L88.84 12.74ZM89.01 11.62L89.01 11.62Q89.58 11.62 90.04 11.33L90.04 11.33L90.04 11.33Q90.50 11.03 90.76 10.56L90.76 10.56L90.76 10.56Q91.03 10.10 91.03 9.60L91.03 9.60L89.47 9.60L89.47 9.60Q88.67 9.60 88.27 9.86L88.27 9.86L88.27 9.86Q87.86 10.13 87.86 10.65L87.86 10.65L87.86 10.65Q87.86 11.12 88.17 11.37L88.17 11.37L88.17 11.37Q88.48 11.62 89.01 11.62L89.01 11.62ZM94.19 4.37L94.19 2.95L95.62 2.95L95.62 4.37L94.19 4.37ZM94.25 12.61L94.25 5.78L95.57 5.78L95.57 12.61L94.25 12.61ZM97.73 12.61L97.73 5.78L99.03 5.78L99.03 6.96L99.03 6.96Q99.26 6.34 99.80 5.99L99.80 5.99L99.80 5.99Q100.33 5.63 100.95 5.63L100.95 5.63L100.95 5.63Q101.29 5.63 101.60 5.74L101.60 5.74L101.60 5.74Q101.90 5.85 102.12 6.05L102.12 6.05L101.54 7.16L101.54 7.16Q101.21 6.91 100.75 6.91L100.75 6.91L100.75 6.91Q100.25 6.91 99.86 7.20L99.86 7.20L99.86 7.20Q99.46 7.49 99.24 8.05L99.24 8.05L99.24 8.05Q99.01 8.62 99.01 9.44L99.01 9.44L99.01 12.61L97.73 12.61ZM105.20 12.74L105.20 12.74Q104.54 12.74 103.98 12.50L103.98 12.50L103.98 12.50Q103.43 12.26 103.04 11.85L103.04 11.85L103.04 11.85Q102.66 11.44 102.50 10.94L102.50 10.94L103.58 10.44L103.58 10.44Q103.76 10.97 104.15 11.31L104.15 11.31L104.15 11.31Q104.53 11.65 105.16 11.65L105.16 11.65L105.16 11.65Q105.73 11.65 106.06 11.38L106.06 11.38L106.06 11.38Q106.39 11.10 106.39 10.67L106.39 10.67L106.39 10.67Q106.39 10.36 106.20 10.15L106.20 10.15L106.20 10.15Q106.01 9.95 105.72 9.83L105.72 9.83L105.72 9.83Q105.43 9.71 104.92 9.56L104.92 9.56L104.92 9.56Q104.26 9.37 103.85 9.18L103.85 9.18L103.85 9.18Q103.44 8.99 103.15 8.62L103.15 8.62L103.15 8.62Q102.86 8.24 102.86 7.64L102.86 7.64L102.86 7.64Q102.86 7 103.18 6.55L103.18 6.55L103.18 6.55Q103.50 6.09 104.03 5.86L104.03 5.86L104.03 5.86Q104.56 5.63 105.20 5.63L105.20 5.63L105.20 5.63Q106.01 5.63 106.63 6.01L106.63 6.01L106.63 6.01Q107.25 6.38 107.60 7.05L107.60 7.05L106.60 7.61L106.60 7.61Q106.12 6.69 105.15 6.69L105.15 6.69L105.15 6.69Q104.68 6.69 104.39 6.90L104.39 6.90L104.39 6.90Q104.10 7.12 104.10 7.46L104.10 7.46L104.10 7.46Q104.10 7.72 104.28 7.90L104.28 7.90L104.28 7.90Q104.46 8.08 104.73 8.19L104.73 8.19L104.73 8.19Q104.99 8.29 105.48 8.44L105.48 8.44L105.48 8.44Q106.18 8.65 106.61 8.86L106.61 8.86L106.61 8.86Q107.05 9.06 107.37 9.48L107.37 9.48L107.37 9.48Q107.69 9.89 107.69 10.56L107.69 10.56L107.69 10.56Q107.69 11.27 107.33 11.76L107.33 11.76L107.33 11.76Q106.98 12.26 106.41 12.50L106.41 12.50L106.41 12.50Q105.84 12.74 105.20 12.74L105.20 12.74ZM111.02 12.74L111.02 12.74Q110.34 12.74 109.81 12.49L109.81 12.49L109.81 12.49Q109.28 12.24 108.98 11.75L108.98 11.75L108.98 11.75Q108.68 11.27 108.68 10.61L108.68 10.61L108.68 10.61Q108.68 9.58 109.43 9.10L109.43 9.10L109.43 9.10Q110.17 8.62 111.55 8.62L111.55 8.62L113.21 8.62L113.21 8.62Q113.21 7.77 112.83 7.28L112.83 7.28L112.83 7.28Q112.46 6.79 111.69 6.79L111.69 6.79L111.69 6.79Q111.08 6.79 110.65 7.07L110.65 7.07L110.65 7.07Q110.21 7.36 109.93 7.79L109.93 7.79L108.94 7.05L108.94 7.05Q109.43 6.36 110.10 6.00L110.10 6.00L110.10 6.00Q110.76 5.63 111.65 5.63L111.65 5.63L111.65 5.63Q112.53 5.63 113.17 5.98L113.17 5.98L113.17 5.98Q113.80 6.34 114.13 6.97L114.13 6.97L114.13 6.97Q114.45 7.60 114.45 8.44L114.45 8.44L114.45 12.61L113.35 12.61L113.29 11.45L113.29 11.45Q112.90 12.13 112.32 12.43L112.32 12.43L112.32 12.43Q111.73 12.74 111.02 12.74L111.02 12.74ZM111.19 11.62L111.19 11.62Q111.76 11.62 112.22 11.33L112.22 11.33L112.22 11.33Q112.68 11.03 112.94 10.56L112.94 10.56L112.94 10.56Q113.20 10.10 113.21 9.60L113.21 9.60L111.64 9.60L111.64 9.60Q110.84 9.60 110.44 9.86L110.44 9.86L110.44 9.86Q110.04 10.13 110.04 10.65L110.04 10.65L110.04 10.65Q110.04 11.12 110.35 11.37L110.35 11.37L110.35 11.37Q110.66 11.62 111.19 11.62L111.19 11.62ZM117.65 12.74L117.65 12.74Q116.98 12.74 116.68 12.37L116.68 12.37L116.68 12.37Q116.39 12.00 116.39 11.24L116.39 11.24L116.39 2.95L117.71 2.95L117.71 11.15L117.71 11.15Q117.71 11.27 117.82 11.42L117.82 11.42L117.82 11.42Q117.93 11.57 118.15 11.57L118.15 11.57L118.15 11.57Q118.46 11.57 118.72 11.51L118.72 11.51L118.72 12.61L118.72 12.61Q118.49 12.66 118.20 12.70L118.20 12.70L118.20 12.70Q117.91 12.74 117.65 12.74L117.65 12.74ZM122.89 12.74L122.89 12.74Q121.91 12.74 121.14 12.26L121.14 12.26L121.14 12.26Q120.38 11.78 119.96 10.96L119.96 10.96L119.96 10.96Q119.53 10.14 119.53 9.17L119.53 9.17L119.53 9.17Q119.53 8.20 119.95 7.39L119.95 7.39L119.95 7.39Q120.37 6.58 121.14 6.11L121.14 6.11L121.14 6.11Q121.91 5.63 122.89 5.63L122.89 5.63L122.89 5.63Q123.87 5.63 124.64 6.11L124.64 6.11L124.64 6.11Q125.41 6.58 125.83 7.40L125.83 7.40L125.83 7.40Q126.26 8.21 126.26 9.17L126.26 9.17L126.26 9.17Q126.26 10.14 125.83 10.96L125.83 10.96L125.83 10.96Q125.41 11.78 124.64 12.26L124.64 12.26L124.64 12.26Q123.87 12.74 122.89 12.74L122.89 12.74ZM122.90 11.62L122.90 11.62Q123.57 11.62 124.01 11.28L124.01 11.28L124.01 11.28Q124.46 10.94 124.68 10.38L124.68 10.38L124.68 10.38Q124.89 9.83 124.89 9.17L124.89 9.17L124.89 9.17Q124.89 8.52 124.68 7.97L124.68 7.97L124.68 7.97Q124.46 7.42 124.01 7.09L124.01 7.09L124.01 7.09Q123.57 6.76 122.90 6.76L122.90 6.76L122.90 6.76Q122.23 6.76 121.78 7.09L121.78 7.09L121.78 7.09Q121.33 7.42 121.12 7.97L121.12 7.97L121.12 7.97Q120.90 8.52 120.90 9.17L120.90 9.17L120.90 9.17Q120.90 9.83 121.12 10.39L121.12 10.39L121.12 10.39Q121.33 10.94 121.78 11.28L121.78 11.28L121.78 11.28Q122.23 11.62 122.90 11.62L122.90 11.62ZM127.82 12.61L127.82 5.78L129.13 5.78L129.13 6.78L129.13 6.78Q129.50 6.23 130.05 5.94L130.05 5.94L130.05 5.94Q130.61 5.65 131.24 5.65L131.24 5.65L131.24 5.65Q132.06 5.65 132.59 6.03L132.59 6.03L132.59 6.03Q133.12 6.42 133.37 7.06L133.37 7.06L133.37 7.06Q133.62 7.70 133.62 8.48L133.62 8.48L133.62 12.61L132.31 12.61L132.31 8.63L132.31 8.63Q132.31 7.86 131.95 7.35L131.95 7.35L131.95 7.35Q131.60 6.83 130.87 6.83L130.87 6.83L130.87 6.83Q130.09 6.83 129.61 7.37L129.61 7.37L129.61 7.37Q129.13 7.92 129.13 8.97L129.13 8.97L129.13 12.61L127.82 12.61Z"/></g><!----><g data-v-423bf9ae="" id="1e8586af-d04b-4cdb-aa8a-c08a34770712" transform="matrix(1.0000040531158447,0,0,1.0000040531158447,-6.603447914123535,-5.0003886222839355)" stroke="none" fill="white"><path d="M56.841 90.222l.004-.004-.002.002zM90.482 37.7C85.998 22.096 76.316 10.819 59.001 6.561c-2.03-.499-4.084-1.189-6.977-.579 10.211 2.413 18.252 6.976 23.843 14.683 8.758 12.074 11.765 25.599 10.377 40.043-.127 1.32.287 2.92-1.104 4.145-2.191-11.881-5.642-19.967-9.69-22.259 7.368 17.143 7.746 33.831-2.231 49.968.562.372.878.222 1.147-.055C89.653 76.818 96.562 58.856 90.482 37.7z"/><path d="M48.832 50.596c-6.281-6.853-12.595-13.693-15.204-22.726-.133-.461-.235-1.217-1.003-.93-.768.288-.486 1.121-.373 1.622.812 3.589 1.742 7.147 3.429 10.493 2.98 5.908 7.085 11.116 11.272 16.282 4.238 5.23 8.705 10.311 12.075 16.116 6.318 10.881 4.52 14.549-2.262 24.29 19.343-8.472 23.016-19.124-7.934-45.147zM26.13 42.62c-4.054 4.958-7.187 9.676-9.501 14.838-5.335 11.903-2.821 21.793 7.606 30.232 1.839 1.488 3.677 3.008 6.761 4.16-1.587-2.096-2.727-3.547-3.807-5.037C8.333 70 26.123 45.542 26.13 42.62zM50.413 39.718c-6.939-5.171-11.906-11.55-13.959-19.757-.423-1.69-.76-3.398-1.137-5.098l-.646.018c-.043.818-.149 1.638-.118 2.453.236 6.193 2.181 11.879 5.766 17.077 4.409 6.393 10.31 11.529 16.008 16.836 6.591 6.14 12.88 12.481 15.725 21.096.022.067.302.058.666.118-.597-8.433-3.253-16.003-9.335-22.337-3.842-4.001-8.515-7.086-12.97-10.406zM32.934 6.445C20.999 6.283 3.559 26.988 8.258 41.6c1.353-7.154 3.958-13.838 7.928-20.009C20.233 15.3 25.281 9.902 32.934 6.445zM21.92 37.831c.267-.444.677-1.004.083-1.401-.601-.403-1.011.189-1.378.543-1.891 1.818-3.827 3.599-5.627 5.494-6.902 7.264-7.943 15.48-4.213 24.423-.157-8.493 3.291-15.921 7.533-23.12 1.175-1.994 2.411-3.955 3.602-5.939z"/></g><!----></svg>